# xmcd
#
# Track frame offsets: 
#        150
#        14507
#        28922
#        42242
#        55615
#        68062
#        81032
#        97810
#        112772
#        127437
#        141330
#        155167
#        169135
#        182297
#        196270
#        210175
#        224952
#        238692
#        252750
#        266965
#        279137
#
# Disc length: 3901 seconds
#
# Revision: 0
# Processed by: cddbd v1.5.2PL0 Copyright (c) Steve Scherf et al.
# Submitted via: ExactAudioCopy v0.95b4
#
DISCID=2f0f3b15
DTITLE=Gus Cannon - Complete Recorded Works Volume 1
DYEAR=1990
DGENRE=Blues
TTITLE0=Jonestown Blues
TTITLE1=Poor Boy, Long Ways From Home
TTITLE2=Madison Street Rag
TTITLE3=Jazz Gypsy Blues
TTITLE4=Can You Blame The Colored Man
TTITLE5=My Money Never Runs Out
TTITLE6=Minglewood Blues
TTITLE7=Big Railroad Blues
TTITLE8=Madison Street Rag
TTITLE9=Springdale Blues
TTITLE10=Ripley Blues
TTITLE11=Pig Ankle Strut
TTITLE12=Noah's Blues
TTITLE13=Hollywood Rag
TTITLE14=Heart-Breakin' Blues
TTITLE15=Feather Bed
TTITLE16=Cairo Rag
TTITLE17=Bugle Call Rag
TTITLE18=Viola Lee Blues take 1
TTITLE19=Viola Lee Blues take 2
TTITLE20=Riley's Wagon
EXTD=
EXTT0=
EXTT1=
EXTT2=
EXTT3=
EXTT4=
EXTT5=
EXTT6=
EXTT7=
EXTT8=
EXTT9=
EXTT10=
EXTT11=
EXTT12=
EXTT13=
EXTT14=
EXTT15=
EXTT16=
EXTT17=
EXTT18=
EXTT19=
EXTT20=
PLAYORDER=
